<svg width="12" height="14" viewBox="0 0 12 14" fill="none" xmlns="http://www.w3.org/2000/svg">
<path d="M10.9601 1.246C10.858 1.1865 8.44007 -0.188426 5.72875 1.23375C4.05982 2.10993 2.53382 1.64557 1.91668 1.38425V0.583324C1.91668 0.261324 1.65593 0 1.33332 0C1.01075 0 0.75 0.261324 0.75 0.583324V1.75V7.59443V13.4167C0.75 13.7393 1.01075 14 1.33332 14C1.6559 14 1.91665 13.7393 1.91665 13.4167V8.46707C2.3769 8.61525 2.98765 8.7529 3.69932 8.75232C4.4705 8.75232 5.35482 8.5919 6.27125 8.11125C8.39282 6.99593 10.2904 8.05057 10.375 8.09958C10.5541 8.20282 10.7763 8.204 10.9572 8.10015C11.1386 7.99572 11.25 7.80322 11.25 7.5944V1.75C11.25 1.54293 11.1398 1.35043 10.9601 1.246Z" fill="#52BFFF"/>
</svg>
