<svg width="14" height="12" viewBox="0 0 14 12" fill="none" xmlns="http://www.w3.org/2000/svg">
<path d="M2.14122 0.65213C2.14084 0.65213 2.14042 0.65213 2.14004 0.65213C2.00763 0.65213 1.88309 0.703746 1.78905 0.797551C1.69397 0.892394 1.6416 1.01868 1.6416 1.15311V8.6653C1.6416 8.94077 1.86659 9.16543 2.1432 9.16614C3.30931 9.16892 5.263 9.41196 6.61078 10.8224V2.96068C6.61078 2.8673 6.58692 2.77957 6.54191 2.70698C5.43571 0.925532 3.30997 0.654864 2.14122 0.65213Z" fill="#52BFFF"/>
<path d="M12.3578 8.66531V1.15308C12.3578 1.01865 12.3054 0.892363 12.2103 0.797521C12.1163 0.703716 11.9917 0.6521 11.8594 0.6521C11.859 0.6521 11.8586 0.6521 11.8582 0.6521C10.6895 0.654881 8.56373 0.925548 7.45749 2.707C7.41248 2.77959 7.38867 2.86731 7.38867 2.96069V10.8224C8.73645 9.41193 10.6901 9.16889 11.8562 9.16611C12.1328 9.1654 12.3578 8.94074 12.3578 8.66531Z" fill="#52BFFF"/>
<path d="M13.4988 2.38458H13.1355V8.66532C13.1355 9.36867 12.5625 9.9422 11.858 9.94395C10.8689 9.9463 9.23804 10.1397 8.08301 11.2329C10.0806 10.7438 12.1865 11.0617 13.3866 11.3352C13.5365 11.3694 13.6913 11.3341 13.8114 11.2384C13.931 11.143 13.9997 11.0003 13.9997 10.8471V2.88547C13.9997 2.60929 13.7749 2.38458 13.4988 2.38458Z" fill="#52BFFF"/>
<path d="M0.864138 8.66532V2.38458H0.500891C0.224755 2.38458 0 2.60929 0 2.88547V10.847C0 11.0002 0.0686332 11.1428 0.18827 11.2383C0.308237 11.3339 0.462944 11.3693 0.613032 11.3351C1.81317 11.0615 3.91907 10.7436 5.9166 11.2328C4.76162 10.1396 3.13073 9.94626 2.14163 9.9439C1.43724 9.9422 0.864138 9.36867 0.864138 8.66532Z" fill="#52BFFF"/>
</svg>
